# xmcd CD database file
#
# Track frame offsets:
#	150
#	20341
#	38565
#	49743
#	61311
#	77950
#	91010
#	109772
#	122127
#	132925
#	151594
#	163467
#	173848
#	189170
#	204363
#	216371
#	232358
#	244505
#	253897
#	267391
#	288517
#	299574
#	307354
#	320425
#	329437
#	344984
#
# Disc length: 4757 seconds
#
# Revision: 0
# Processed by: cddbd v1.5.1PL2 Copyright (c) Steve Scherf et al.
# Submitted via: Feurio! 1.68 - http://www.feurio.com
#
DISCID=9312931a
DTITLE=Pogues - The Pub With No Beer
DYEAR=1900
DGENRE=Folkrock
TTITLE0=Love You 'Till The End
TTITLE1=Summer In Siam
TTITLE2=Streams of Whiskey
TTITLE3=Five Green Queens and Jean
TTITLE4=Dirty Old Town
TTITLE5=The Ghost Of A Smile
TTITLE6=Fiesta
TTITLE7=Wild Cats of Kilkenny
TTITLE8=The Pub With No Beer
TTITLE9=Navigator
TTITLE10=Whiskey In The Jar
TTITLE11=If I Should Fall From Grace Of God
TTITLE12=Turkish Song Of The Damned
TTITLE13=London Calling
TTITLE14=Sally Maclennane
TTITLE15=Blue Heaven
TTITLE16=Young Ned Of The Hill
TTITLE17=Wiskey You're the Devil
TTITLE18=Hells Ditch
TTITLE19=A Rainy Night In Soho
TTITLE20=A Pistol For Paddy Garcia
TTITLE21=Maidrin Rua
TTITLE22=Jesse James
TTITLE23=Billy's Bones
TTITLE24=Tuesday Morning
TTITLE25=Birmingham Six
EXTD=
EXTT0=
EXTT1=
EXTT2=
EXTT3=
EXTT4=
EXTT5=
EXTT6=
EXTT7=
EXTT8=
EXTT9=
EXTT10=
EXTT11=
EXTT12=
EXTT13=
EXTT14=
EXTT15=
EXTT16=
EXTT17=
EXTT18=
EXTT19=
EXTT20=
EXTT21=
EXTT22=
EXTT23=
EXTT24=
EXTT25=
PLAYORDER=
